<svg width="97.724" height="100" xmlns="http://www.w3.org/2000/svg"><path d="M48.862 5a8.589 8.589 0 0 0-5.799 2.235l-.001.001-.003.003L7.806 39.275a1.543 1.543 0 0 0-.003.003l-.068.063-.001.001A8.734 8.734 0 0 0 5 45.546v.067a1.543 1.543 0 0 0 0 .014v40.777C5 91.112 8.888 95 13.596 95h70.532c4.708 0 8.596-3.888 8.596-8.596V45.627a1.543 1.543 0 0 0 0-.002 1.543 1.543 0 0 0 0-.004 1.543 1.543 0 0 0 0-.003 1.543 1.543 0 0 0 0-.002 8.734 8.734 0 0 0-2.733-6.273l-.002-.002-.07-.065a1.543 1.543 0 0 0-.001 0L54.663 7.235A8.589 8.589 0 0 0 48.863 5Zm0 3.086a5.49 5.49 0 0 1 3.72 1.429 1.543 1.543 0 0 0 .004.003l35.256 32.04c.009.008.018.015.026.024a1.543 1.543 0 0 0 .003.002 5.649 5.649 0 0 1 1.767 4.012 1.543 1.543 0 0 0 0 .01l.001.033v40.765c0 3-2.51 5.51-5.51 5.51H13.596c-3 0-5.51-2.51-5.51-5.51V45.607a1.543 1.543 0 0 0 0-.003 1.543 1.543 0 0 0 0-.004 1.543 1.543 0 0 0 0-.003 1.543 1.543 0 0 0 0-.001 5.649 5.649 0 0 1 1.767-4.012 1.543 1.543 0 0 0 .002-.001l.026-.025.003-.002L45.138 9.518a1.543 1.543 0 0 0 .005-.003 5.49 5.49 0 0 1 3.72-1.43ZM35.324 29.377a1.07 1.07 0 0 0-.534.142l-10.348 6.03-.003.002-.002.001c-.14.087-.259.205-.345.346a1.043 1.043 0 0 0-.062.139 1.08 1.08 0 0 0-.09.335 1.007 1.007 0 0 0-.02.082v36.167c0 .373.198.718.521.905l20.67 11.934.053.014c.142.077.3.12.46.126l.006-.001.015-.002c.16-.006.317-.047.459-.123l.051-.014 21.25-12.269c.322-.186.521-.53.522-.901l.031-11.228 9.54-5.717c.315-.19.508-.53.508-.897V42.455c0-.367-.193-.706-.507-.895L67.45 35.52a1.045 1.045 0 0 0-1.063-.007l-10.354 6.03c-.312.194-.5.536-.495.903h-.024l.002 11.386-8.97 5.107V36.465a1.044 1.044 0 0 0-.86-1.026l-9.832-5.912a1.043 1.043 0 0 0-.53-.15Zm-.016 2.259 8.027 4.827-8.026 4.808-8.271-4.817zm31.598 5.99 8.026 4.82-8.026 4.816-8.272-4.817zm-22.449.599v21.9l-8.224 4.684.125-21.73zm-18.45.045 8.263 4.812-.136 23.522.015.054c.004.164.045.324.122.468l.002.002a1.105 1.105 0 0 0 .383.387L44.679 73.3l-.076 9.453-18.596-10.736zm31.546 5.992 8.36 4.627-.094 9.763-8.266-4.762zm18.363.036v9.592l-7.957 4.762v-9.763zM56.554 55.645l8.279 4.82-19.105 11.03-8.45-4.88zm9.311 6.636-.025 9.402-19.147 11.054.074-9.43z"/></svg>